<?xml version="1.0" encoding="UTF-8"?> <svg xmlns="http://www.w3.org/2000/svg" viewBox="0 0 100 100" fill-rule="evenodd"> <g stroke-width="1" stroke="black"> <path d="M78.63 23.039h-3.312v-7.446a1.5 1.5 0 0 0-1.5-1.5H25.35a1.5 1.5 0 0 0-1.5 1.5v7.446h-3.314a1.5 1.5 0 0 0-1.5 1.5v7.566a1.5 1.5 0 0 0 1.5 1.5h3.477l6.224 54.045a1.5 1.5 0 0 0 1.49 1.329h35.715a1.5 1.5 0 0 0 1.49-1.329l6.223-54.045h3.475a1.5 1.5 0 0 0 1.5-1.5v-7.566a1.5 1.5 0 0 0-1.5-1.5zm-51.78-5.945h45.468v5.946H26.85v-5.946zm40.791 55.543H31.527l-2.818-24.469h41.749l-2.817 24.469zM33.064 85.979l-1.191-10.342h35.422l-1.191 10.342h-33.04zm37.74-40.811h-42.44l-1.332-11.562h45.103l-1.331 11.562zm6.326-14.563H22.036v-4.566H77.13v4.566z"></path> </g> </svg> 