<svg width="40" height="40" viewBox="0 0 40 40" fill="none" xmlns="http://www.w3.org/2000/svg">
<circle cx="20" cy="20" r="20" fill="#F17748"/>
<circle cx="20" cy="20" r="11" fill="white"/>
<path fill-rule="evenodd" clip-rule="evenodd" d="M17.25 13.75H22.75C23.6783 13.75 24.5685 14.1187 25.2249 14.7751C25.8813 15.4315 26.25 16.3217 26.25 17.25V22.75C26.25 23.6783 25.8813 24.5685 25.2249 25.2249C24.5685 25.8813 23.6783 26.25 22.75 26.25H17.25C16.3217 26.25 15.4315 25.8813 14.7751 25.2249C14.1187 24.5685 13.75 23.6783 13.75 22.75V17.25C13.75 16.3217 14.1187 15.4315 14.7751 14.7751C15.4315 14.1187 16.3217 13.75 17.25 13.75ZM18.3333 22.4944C18.8266 22.8241 19.4067 23 20 23C20.7956 23 21.5587 22.6839 22.1213 22.1213C22.6839 21.5587 23 20.7956 23 20C23 19.4067 22.8241 18.8266 22.4944 18.3333C22.4704 18.2973 22.4456 18.2619 22.4201 18.2271C22.3125 18.3654 22.173 18.5117 22.0216 18.6706C21.9681 18.7267 21.913 18.7844 21.8574 18.8439C21.8123 18.8921 21.7682 18.94 21.7249 18.9871C21.8997 19.2842 22 19.6304 22 20C22 21.1046 21.1046 22 20 22C18.8954 22 18 21.1046 18 20C18 18.8954 18.8954 18 20 18C20.3313 18 20.6437 18.0805 20.9189 18.2231L20.9523 18.1876C21.0339 18.1003 21.113 18.0119 21.19 17.9258C21.3398 17.7581 21.4819 17.5992 21.6197 17.4748C21.4708 17.3793 21.313 17.2967 21.1481 17.2284C20.5999 17.0013 19.9967 16.9419 19.4147 17.0576C18.8328 17.1734 18.2982 17.4591 17.8787 17.8787C17.4591 18.2982 17.1734 18.8328 17.0576 19.4147C16.9419 19.9967 17.0013 20.5999 17.2284 21.1481C17.4554 21.6962 17.8399 22.1648 18.3333 22.4944ZM22.8333 17.3736C22.9567 17.456 23.1017 17.5 23.25 17.5C23.4489 17.5 23.6397 17.421 23.7803 17.2803C23.921 17.1397 24 16.9489 24 16.75C24 16.6017 23.956 16.4567 23.8736 16.3333C23.7912 16.21 23.6741 16.1139 23.537 16.0571C23.4 16.0003 23.2492 15.9855 23.1037 16.0144C22.9582 16.0433 22.8246 16.1148 22.7197 16.2197C22.6148 16.3246 22.5434 16.4582 22.5144 16.6037C22.4855 16.7492 22.5003 16.9 22.5571 17.037C22.6139 17.1741 22.71 17.2912 22.8333 17.3736Z" fill="#F17748"/>
</svg>
