<?xml version="1.0" encoding="UTF-8"?> <svg xmlns="http://www.w3.org/2000/svg" viewBox="0 0 100 100" fill-rule="evenodd"> <g stroke-width="1" stroke="black"> <path d="M32.781 53.065c-16.576 0-30.062 13.486-30.062 30.062a1.5 1.5 0 0 0 1.5 1.5h57.128a1.5 1.5 0 0 0 1.5-1.5c0-16.576-13.488-30.062-30.066-30.062zM5.76 81.627C6.541 67.4 18.363 56.065 32.781 56.065c14.42 0 26.243 11.335 27.024 25.562H5.76zm27.524-32.478c9.598 0 17.405-7.809 17.405-17.408 0-9.597-7.808-17.404-17.405-17.404-9.599 0-17.408 7.808-17.408 17.404 0 9.599 7.81 17.408 17.408 17.408zm0-31.813c7.943 0 14.405 6.462 14.405 14.404 0 7.945-6.462 14.408-14.405 14.408-7.944 0-14.408-6.463-14.408-14.408 0-7.942 6.464-14.404 14.408-14.404zM73.51 60.397a22.737 22.737 0 0 0-11.521 3.132 1.5 1.5 0 1 0 1.522 2.586 19.733 19.733 0 0 1 10-2.718c10.376 0 18.908 8.049 19.677 18.23H68.34a1.5 1.5 0 1 0 0 3h26.404a1.5 1.5 0 0 0 1.5-1.5c-.001-12.533-10.199-22.73-22.734-22.73zm.366-4.495c7.348 0 13.325-5.978 13.325-13.324 0-7.349-5.978-13.327-13.325-13.327-7.345 0-13.32 5.979-13.32 13.327 0 7.346 5.975 13.324 13.32 13.324zm0-23.652c5.693 0 10.325 4.633 10.325 10.327 0 5.693-4.632 10.324-10.325 10.324-5.69 0-10.32-4.631-10.32-10.324 0-5.694 4.63-10.327 10.32-10.327z"></path> </g> </svg> 