<?xml version="1.0" encoding="UTF-8"?> <svg xmlns="http://www.w3.org/2000/svg" viewBox="1950 2450.199951171875 100 100" width="100" height="100"><ellipse color="rgb(51, 51, 51)" fill="#2ab7ca" class="st0" cx="2000" cy="2500.2" r="50" id="tSvg1402c291972" title="Ellipse 9" fill-opacity="1" stroke="none" stroke-opacity="1" rx="50" ry="50" style="transform: rotate(0deg);"></ellipse><path fill="none" stroke="rgb(35, 31, 32)" fill-opacity="1" stroke-width="2" stroke-opacity="1" color="rgb(51, 51, 51)" stroke-miterlimit="10" class="st2" display="none" id="tSvgcd326603cc" title="Path 10" d="M 2013.9 2521.7 C 2013.9 2515.1 2009.3 2509.6 2003.1 2508.3 C 2003.1 2507.1666666666665 2003.1 2506.0333333333333 2003.1 2504.9 C 2005.4 2503.8 2007 2501.5 2007 2498.7 C 2007 2498.1 2007 2495.9 2007 2495.3 C 2007 2491.5 2003.9 2488.5 2000.2 2488.5 C 1996.4 2488.5 1993.4 2491.6 1993.4 2495.3 C 1993.4 2495.9 1993.4 2498.1 1993.4 2498.7 C 1993.4 2501.4 1995 2503.7 1997.2 2504.8 C 1997.2 2505.9666666666667 1997.2 2507.133333333333 1997.2 2508.3 C 1991.1 2509.7 1986.5 2515.1 1986.5 2521.7C 1986.5 2521.7 2013.9 2521.7 2013.9 2521.7Z"></path><path fill="none" stroke="rgb(35, 31, 32)" fill-opacity="1" stroke-width="2" stroke-opacity="1" color="rgb(51, 51, 51)" stroke-miterlimit="10" class="st2" display="none" id="tSvg124d619e183" title="Path 11" d="M 2007.1 2493.3 C 2008.1 2492.7 2009.2 2492.2 2010.3 2492 C 2010.3 2491.133333333333 2010.3 2490.266666666667 2010.3 2489.4 C 2008.6 2488.6 2007.4 2486.8 2007.4 2484.8 C 2007.4 2484.4 2007.4 2482.7 2007.4 2482.2 C 2007.4 2479.3 2009.7 2477 2012.6 2477 C 2015.5 2477 2017.8 2479.3 2017.8 2482.2 C 2017.8 2482.6 2017.8 2484.3 2017.8 2484.8 C 2017.8 2486.9 2016.6 2488.6 2014.8 2489.5 C 2014.8 2490.3333333333335 2014.8 2491.1666666666665 2014.8 2492 C 2019.5 2493 2023 2497.1 2023 2502.1 C 2017.4 2502.1 2011.8 2502.1 2006.2 2502.1"></path><path fill="none" stroke="rgb(35, 31, 32)" fill-opacity="1" stroke-width="2" stroke-opacity="1" color="rgb(51, 51, 51)" stroke-miterlimit="10" class="st2" display="none" id="tSvg83e370889a" title="Path 12" d="M 1993.7 2493.3 C 1992.7 2492.7 1991.6 2492.2 1990.5 2492 C 1990.5 2491.133333333333 1990.5 2490.266666666667 1990.5 2489.4 C 1992.2 2488.6 1993.5 2486.8 1993.5 2484.7 C 1993.5 2484.3 1993.5 2482.6 1993.5 2482.1 C 1993.5 2479.2 1991.2 2476.9 1988.3 2476.9 C 1985.5 2476.9 1983.1 2479.2 1983.1 2482.1 C 1983.1 2482.5 1983.1 2484.2 1983.1 2484.7 C 1983.1 2486.7 1984.3 2488.5 1986 2489.3 C 1986 2490.2 1986 2491.1 1986 2492 C 1981.4 2493 1977.9 2497.2 1977.9 2502.1 C 1983.1666666666667 2502.1 1988.4333333333334 2502.1 1993.7 2502.1"></path><path fill="none" stroke="rgb(35, 31, 32)" fill-opacity="1" stroke-width="2" stroke-opacity="1" color="rgb(51, 51, 51)" stroke-miterlimit="10" class="st4" display="none" id="tSvg16f25fa9c07" title="Path 13" d="M 2022.8 2479.4 C 2013.1 2479.4 2003.4 2479.4 1993.7 2479.4 C 1993.7 2487.1 1993.7 2494.8 1993.7 2502.5 C 1995.9333333333334 2502.5 1998.1666666666667 2502.5 2000.4 2502.5 C 2000.4 2504.7 2000.4 2506.9 2000.4 2509.1 C 2002.6333333333334 2506.9 2004.8666666666666 2504.7 2007.1 2502.5 C 2012.3333333333333 2502.5 2017.5666666666666 2502.5 2022.8 2502.5C 2022.8 2494.8 2022.8 2487.1 2022.8 2479.4Z"></path><path fill="none" stroke="rgb(35, 31, 32)" fill-opacity="1" stroke-width="2" stroke-opacity="1" color="rgb(51, 51, 51)" stroke-miterlimit="10" class="st4" display="none" id="tSvg5ad36b80b5" title="Path 14" d="M 1993.7 2492.1 C 1989.0666666666666 2492.1 1984.4333333333334 2492.1 1979.8 2492.1 C 1979.8 2499.8 1979.8 2507.5 1979.8 2515.2 C 1982.2333333333333 2515.2 1984.6666666666667 2515.2 1987.1 2515.2 C 1989.3333333333333 2517.5666666666666 1991.5666666666666 2519.9333333333334 1993.8 2522.3 C 1993.8 2519.9333333333334 1993.8 2517.5666666666666 1993.8 2515.2 C 1999.3 2515.2 2004.8 2515.2 2010.3 2515.2 C 2010.3 2511.0666666666666 2010.3 2506.9333333333334 2010.3 2502.8"></path><ellipse color="rgb(51, 51, 51)" stroke-miterlimit="10" stroke-width="2" stroke="rgb(35, 31, 32)" transform="matrix(1, -0.00369068, 0.00369068, 1, -0.1307, 0.1885)" class="st2" cx="2001" cy="2485.5" rx="1.7" ry="1.7" display="none" id="tSvg795ea56963" title="Ellipse 10" fill="none" fill-opacity="1" stroke-opacity="1" style="transform: rotate(0deg);"></ellipse><ellipse color="rgb(51, 51, 51)" stroke-miterlimit="10" stroke-width="2" stroke="rgb(35, 31, 32)" transform="matrix(1, -0.00369068, 0.00369068, 1, -0.1306, 0.2173)" class="st2" cx="2008.8" cy="2485.5" rx="1.7" ry="1.7" display="none" id="tSvg62542080da" title="Ellipse 11" fill="none" fill-opacity="1" stroke-opacity="1" style="transform: rotate(0deg);"></ellipse><path fill="none" stroke="rgb(35, 31, 32)" fill-opacity="1" stroke-width="2" stroke-opacity="1" color="rgb(51, 51, 51)" stroke-miterlimit="10" class="st2" display="none" id="tSvgfb65e797eb" title="Path 15" d="M 1975.8 2482.3 C 1977.6333333333334 2482.3 1979.4666666666667 2482.3 1981.3 2482.3 C 1984.3666666666666 2492.5666666666666 1987.4333333333334 2502.8333333333335 1990.5 2513.1 C 1998.5333333333333 2513.1 2006.5666666666666 2513.1 2014.6 2513.1 C 2015.9 2504.6 2017.2 2496.1 2018.5 2487.6 C 2006.6333333333334 2487.6 1994.7666666666667 2487.6 1982.9 2487.6"></path><ellipse color="rgb(51, 51, 51)" stroke-miterlimit="10" stroke-width="2" stroke="rgb(35, 31, 32)" class="st2" cx="1993.6" cy="2519.9" rx="3.1" ry="3.1" display="none" id="tSvg43404094c6" title="Ellipse 12" fill="none" fill-opacity="1" stroke-opacity="1" style="transform: rotate(0deg);"></ellipse><ellipse color="rgb(51, 51, 51)" stroke-miterlimit="10" stroke-width="2" stroke="rgb(35, 31, 32)" class="st2" cx="2011.1" cy="2520.1" r="3.1" display="none" id="tSvgd19db55724" title="Ellipse 13" fill="none" fill-opacity="1" stroke-opacity="1" rx="3.1" ry="3.1" style="transform: rotate(0deg);"></ellipse><line color="rgb(51, 51, 51)" stroke-miterlimit="10" stroke-width="2" stroke="rgb(35, 31, 32)" class="st2" x1="1988.9" y1="2507.8" x2="1991.7" y2="2517.2" display="none" id="tSvg1b4e5a52c0" title="Line 7" fill="none" fill-opacity="1" stroke-opacity="1"></line><line color="rgb(51, 51, 51)" stroke-miterlimit="10" stroke-width="2" stroke="rgb(35, 31, 32)" class="st2" x1="1997" y1="2519.3" x2="2008" y2="2519.3" display="none" id="tSvged5b9f2159" title="Line 8" fill="none" fill-opacity="1" stroke-opacity="1"></line><rect color="rgb(51, 51, 51)" stroke-miterlimit="10" stroke-width="2" stroke="rgb(0, 0, 0)" x="1973.2" y="2494.2" class="st5" width="45.2" height="24.7" display="none" id="tSvgfd36705e11" title="Rectangle 26" fill="none" fill-opacity="1" stroke-opacity="1" style="transform: rotate(0deg);"></rect><ellipse color="rgb(51, 51, 51)" stroke-miterlimit="10" stroke-width="2" stroke="rgb(0, 0, 0)" class="st5" cx="1996" cy="2506.5" r="7.7" display="none" id="tSvg13b3f6137c4" title="Ellipse 14" fill="none" fill-opacity="1" stroke-opacity="1" rx="7.7" ry="7.7" style="transform: rotate(0deg);"></ellipse><line color="rgb(51, 51, 51)" stroke-miterlimit="10" stroke-width="2" stroke="rgb(0, 0, 0)" class="st5" x1="1977.9" y1="2498.9" x2="1977.9" y2="2514.2" display="none" id="tSvg6858f41158" title="Line 9" fill="none" fill-opacity="1" stroke-opacity="1"></line><line color="rgb(51, 51, 51)" stroke-miterlimit="10" stroke-width="2" stroke="rgb(0, 0, 0)" class="st5" x1="2013.8" y1="2498.9" x2="2013.8" y2="2514.2" display="none" id="tSvg17bef95858d" title="Line 10" fill="none" fill-opacity="1" stroke-opacity="1"></line><path fill="none" stroke="rgb(0, 0, 0)" fill-opacity="1" stroke-width="2" stroke-opacity="1" color="rgb(51, 51, 51)" stroke-miterlimit="10" class="st5" display="none" id="tSvg13a0dce3ab" title="Path 16" d="M 1978.7 2494.2 C 1978.7 2492.2 1978.7 2490.2 1978.7 2488.2 C 1993.7666666666667 2488.2 2008.8333333333333 2488.2 2023.9 2488.2 C 2023.9 2496.4333333333334 2023.9 2504.6666666666665 2023.9 2512.9 C 2022.0666666666666 2512.9 2020.2333333333333 2512.9 2018.4 2512.9"></path><path fill="none" stroke="rgb(0, 0, 0)" fill-opacity="1" stroke-width="2" stroke-opacity="1" color="rgb(51, 51, 51)" stroke-miterlimit="10" class="st5" display="none" id="tSvg3c7d1c88ad" title="Path 17" d="M 1983.8 2488.7 C 1983.8 2486.7 1983.8 2484.7 1983.8 2482.7 C 1998.8666666666666 2482.7 2013.9333333333334 2482.7 2029 2482.7 C 2029 2490.9333333333334 2029 2499.1666666666665 2029 2507.4 C 2027.1666666666667 2507.4 2025.3333333333333 2507.4 2023.5 2507.4"></path><ellipse color="rgb(51, 51, 51)" stroke-miterlimit="10" stroke-width="2" stroke="rgb(0, 0, 0)" class="st5" cx="2000.8" cy="2499.4" r="20.2" display="none" id="tSvg717d903ae3" title="Ellipse 15" fill="none" fill-opacity="1" stroke-opacity="1" rx="20.2" ry="20.2" style="transform: rotate(0deg);"></ellipse><line color="rgb(51, 51, 51)" stroke-miterlimit="10" stroke-width="2" stroke="rgb(0, 0, 0)" class="st5" x1="2000.4" y1="2484.2" x2="2000.4" y2="2503.3" display="none" id="tSvg1051b43225d" title="Line 11" fill="none" fill-opacity="1" stroke-opacity="1"></line><line color="rgb(51, 51, 51)" stroke-miterlimit="10" stroke-width="2" stroke="rgb(0, 0, 0)" class="st5" x1="2000.4" y1="2503.3" x2="2007" y2="2496.7" display="none" id="tSvga9b6e2eeb5" title="Line 12" fill="none" fill-opacity="1" stroke-opacity="1"></line><ellipse color="rgb(51, 51, 51)" stroke-miterlimit="10" stroke-width="2" stroke="rgb(0, 0, 0)" class="st6" cx="2000.8" cy="2499.4" r="25.2" display="none" id="tSvg1718c1fbb22" title="Ellipse 16" fill="none" fill-opacity="1" stroke-opacity="1" rx="25.2" ry="25.2" style="transform: rotate(0deg);"></ellipse><path fill="#2ab7ca" stroke="#ffffff" fill-opacity="1" stroke-width="2" stroke-opacity="1" color="rgb(51, 51, 51)" stroke-miterlimit="10" class="st5" id="tSvg1895b731d65" title="Path 18" d="M 1999.6 2475.6 C 1997.2666666666667 2480.3 1994.9333333333334 2485 1992.6 2489.7 C 1987.4333333333334 2490.4666666666667 1982.2666666666667 2491.233333333333 1977.1 2492 C 1975.7 2492.2 1975.2 2493.9 1976.2 2494.8 C 1979.9333333333334 2498.4666666666667 1983.6666666666667 2502.133333333333 1987.4 2505.8 C 1986.5333333333333 2511 1985.6666666666667 2516.2 1984.8 2521.4 C 1984.6 2522.7 1986 2523.8 1987.2 2523.2 C 1991.9333333333334 2520.8 1996.6666666666667 2518.4 2001.4 2516 C 2005.9333333333334 2518.4 2010.4666666666667 2520.8 2015 2523.2 C 2016.2 2523.8 2017.6 2522.8 2017.4 2521.4 C 2016.5 2516.266666666667 2015.6 2511.133333333333 2014.7 2506 C 2018.4333333333334 2502.3333333333335 2022.1666666666667 2498.6666666666665 2025.9 2495 C 2026.8 2494.1 2026.4 2492.4 2025 2492.2 C 2019.8 2491.4666666666667 2014.6 2490.733333333333 2009.4 2490 C 2007.0666666666666 2485.3 2004.7333333333333 2480.6 2002.4 2475.9C 2002 2474.5 2000.2 2474.5 1999.6 2475.6Z"></path><defs> </defs></svg> 