<?xml version="1.0" encoding="UTF-8"?> <svg xmlns="http://www.w3.org/2000/svg" viewBox="1950 2450 100 100" width="100" height="100"><ellipse fill="#fbb232" fill-opacity="1" stroke="" stroke-opacity="0" stroke-width="1" id="tSvg112d32bd148" title="Ellipse 1" cx="2000" cy="2500" rx="50" ry="50" style="transform: rotate(0deg);"></ellipse><path fill="#ffffff" stroke="none" fill-opacity="1" stroke-width="1" stroke-opacity="1" color="rgb(51, 51, 51)" fill-rule="evenodd" id="tSvg46fa69e108" title="Path 1" d="M 2009.7694176984267 2477.644072386363 C 2009.4954794509877 2477.4714397555254 2009.1523845715267 2477.4524301234383 2008.8611978698573 2477.5937512490464 C 2002.3762995077063 2480.7220486188958 1995.8914011455552 2483.8503459887456 1989.4065027834042 2486.9786433585955 C 1983.9175144401668 2486.9786433585955 1978.4285260969295 2486.9786433585955 1972.939537753692 2486.9786433585955 C 1972.4206453804377 2486.9786433585955 1972 2487.4010722445173 1972 2487.9221646832825 C 1972 2493.8118344633813 1972 2499.7015042434805 1972 2505.5911740235797 C 1972.0013518411613 2505.657319098985 1972.0118928972975 2505.722950744883 1972.031317925123 2505.7861684306818 C 1972.031317925123 2505.7861684306818 1972.031317925123 2505.842779710163 1972.031317925123 2505.874230420986 C 1972.043920104353 2505.9086263953027 1972.0585613229202 2505.9422339294647 1972.0751630202953 2505.9748726956186 C 1972.0751630202953 2505.991646408058 1972.0751630202953 2506.008420120497 1972.0751630202953 2506.0251938329357 C 1976.4429696441266 2513.3636930249427 1980.810776267958 2520.7021922169497 1985.1785828917893 2528.0406914089567 C 1985.3485396178703 2528.326030554292 1985.6555003142773 2528.500473583293 1985.9865853599647 2528.4998717869703 C 1988.9450853532576 2528.4998717869703 1991.9035853465507 2528.4998717869703 1994.8620853398436 2528.4998717869703 C 1995.5853406522672 2528.501188015274 1996.0387935893884 2527.715744177576 1995.6783010076922 2527.0860728798084 C 1995.6756036568195 2527.08136142523 1995.6728658212558 2527.076673461935 1995.670087808019 2527.0720095156116 C 1991.58623037197 2520.207367700003 1987.5023729359214 2513.342725884394 1983.4185154998725 2506.4780840687854 C 1985.4312141544488 2506.4780840687854 1987.443912809025 2506.4780840687854 1989.4566114636011 2506.4780840687854 C 1995.928982655703 2509.5917044402513 2002.4013538478048 2512.705324811717 2008.8737250399065 2515.8189451831827 C 2009.493596941721 2516.1070602508617 2010.2027382572653 2515.6556988280477 2010.2078686501497 2514.969775990965 C 2010.2078686501497 2502.7941574743977 2010.2078686501497 2490.618538957831 2010.2078686501497 2478.442920441264C 2010.2081144651504 2478.11866899338 2010.0425457701317 2477.8170064480896 2009.7694176984267 2477.644072386363Z M 1973.8790755073844 2488.865686007969 C 1978.8899435270762 2488.865686007969 1983.900811546768 2488.865686007969 1988.9116795664597 2488.865686007969 C 1988.9116795664597 2494.1074711451165 1988.9116795664597 2499.3492562822644 1988.9116795664597 2504.591041419412 C 1983.900811546768 2504.591041419412 1978.8899435270762 2504.591041419412 1973.8790755073844 2504.591041419412C 1973.8790755073844 2499.3492562822644 1973.8790755073844 2494.1074711451165 1973.8790755073844 2488.865686007969Z M 1993.2084988933452 2526.606538995433 C 1990.9974533796565 2526.606538995433 1988.7864078659672 2526.606538995433 1986.5753623522783 2526.606538995433 C 1982.581282968249 2519.8970540198834 1978.5872035842197 2513.1875690443344 1974.5931242001905 2506.4780840687854 C 1976.8041697138797 2506.4780840687854 1979.0152152275684 2506.4780840687854 1981.2262607412574 2506.4780840687854C 1985.2203401252866 2513.1875690443344 1989.214419509316 2519.8970540198834 1993.2084988933452 2526.606538995433Z M 2008.328793142765 2513.4664320136308 C 2002.4827804531249 2510.654738466065 1996.6367677634844 2507.8430449184984 1990.790755073844 2505.031351370932 C 1990.790755073844 2499.48973612394 1990.790755073844 2493.948120876947 1990.790755073844 2488.4065056299546 C 1996.6367677634844 2485.584328512114 2002.4827804531249 2482.762151394274 2008.328793142765 2479.9399742764335C 2008.328793142765 2491.1154601888325 2008.328793142765 2502.290946101232 2008.328793142765 2513.4664320136308Z M 2018.6637084333793 2491.067235765571 C 2018.8620753509992 2491.066802882612 2019.0551454154306 2491.0029077961053 2019.2149039155456 2490.884821642798 C 2021.5115517579043 2489.2074503989106 2023.808199600263 2487.5300791550235 2026.1048474426216 2485.8527079111363 C 2026.690685213828 2485.426598394486 2026.5975042628497 2484.523403044787 2025.93712172988 2484.2269562823913 C 2025.6306371197923 2484.089374856704 2025.2743447365433 2484.1264452349915 2025.0024564782893 2484.324203365144 C 2022.7058086359307 2486.001574609031 2020.409160793572 2487.6789458529183 2018.1125129512131 2489.356317096806 C 2017.5290792698363 2489.7855695879393 2017.6271507827664 2490.688115757948 2018.289041674655 2490.9809002026977C 2018.407131815949 2491.0331368430157 2018.5346710593408 2491.0603848614273 2018.6637084333793 2491.067235765571Z M 2028.0590859703016 2495.7848423890036 C 2024.927293457994 2495.7848423890036 2021.7955009456869 2495.7848423890036 2018.6637084333793 2495.7848423890036 C 2017.9404519333686 2495.7848423890036 2017.488416620862 2496.5711101595757 2017.8500448708674 2497.2001243760337 C 2018.0178771257742 2497.4920508898363 2018.3280439235655 2497.6718850383772 2018.6637084333793 2497.6718850383772 C 2021.7955009456869 2497.6718850383772 2024.927293457994 2497.6718850383772 2028.0590859703016 2497.6718850383772 C 2028.7823424703122 2497.6718850383772 2029.2343777828187 2496.8856172678047 2028.8727495328133 2496.256603051347C 2028.7049172779066 2495.9646765375446 2028.3947504801154 2495.7848423890036 2028.0590859703016 2495.7848423890036Z M 2026.1048474426216 2507.6040195162445 C 2023.808199600263 2505.9266482723574 2021.5115517579043 2504.2492770284703 2019.2149039155456 2502.5719057845827 C 2018.6290661580829 2502.1457962488766 2017.8035879811107 2502.516354675887 2017.7290431960416 2503.2389109525084 C 2017.6944468397703 2503.574250498378 2017.840624686581 2503.9026522092668 2018.1125129512131 2504.100410330575 C 2020.409160793572 2505.7777815744626 2022.7058086359307 2507.4551528183497 2025.0024564782893 2509.132524062237 C 2025.588294235752 2509.5586335979433 2026.4137724127243 2509.1880751709323 2026.4883171977933 2508.4655188943116C 2026.5229135540644 2508.1301793484417 2026.3767357072538 2507.801777637553 2026.1048474426216 2507.6040195162445Z" style=""></path><defs> </defs></svg> 